<svg xmlns="http://www.w3.org/2000/svg" width="210mm" height="297mm" viewBox="0 0 210 297">
  <style>
    .card-border,.answer-box{fill:#fff;stroke:#111;stroke-width:.6}
    .answer-box{stroke-width:.5}
    .marker rect{fill:#000}
    text{font-family:Arial,"Microsoft YaHei",sans-serif;text-anchor:middle;dominant-baseline:middle;fill:#111}
    .brand{font-size:4.2px;font-weight:700}
    .answer{font-size:7.8px;font-weight:900}
    .card-code{font-size:11.2px;font-weight:800}
  </style>
  <rect width="210" height="297" fill="#fff" />
  <g transform="translate(10 10)">
    <rect class="card-border" x="0" y="0" width="90" height="130" />
    <text class="brand" x="45" y="15">智答课堂 AI</text>
    <g class="marker" aria-label="C057"><rect x="18" y="30" width="7.714285714285714" height="7.714285714285714" /><rect x="25.714285714285715" y="30" width="7.714285714285714" height="7.714285714285714" /><rect x="33.42857142857143" y="30" width="7.714285714285714" height="7.714285714285714" /><rect x="41.14285714285714" y="30" width="7.714285714285714" height="7.714285714285714" /><rect x="48.85714285714286" y="30" width="7.714285714285714" height="7.714285714285714" /><rect x="56.57142857142857" y="30" width="7.714285714285714" height="7.714285714285714" /><rect x="64.28571428571428" y="30" width="7.714285714285714" height="7.714285714285714" /><rect x="18" y="37.714285714285715" width="7.714285714285714" height="7.714285714285714" /><rect x="25.714285714285715" y="37.714285714285715" width="7.714285714285714" height="7.714285714285714" /><rect x="64.28571428571428" y="37.714285714285715" width="7.714285714285714" height="7.714285714285714" /><rect x="18" y="45.42857142857143" width="7.714285714285714" height="7.714285714285714" /><rect x="33.42857142857143" y="45.42857142857143" width="7.714285714285714" height="7.714285714285714" /><rect x="41.14285714285714" y="45.42857142857143" width="7.714285714285714" height="7.714285714285714" /><rect x="48.85714285714286" y="45.42857142857143" width="7.714285714285714" height="7.714285714285714" /><rect x="64.28571428571428" y="45.42857142857143" width="7.714285714285714" height="7.714285714285714" /><rect x="18" y="53.14285714285714" width="7.714285714285714" height="7.714285714285714" /><rect x="33.42857142857143" y="53.14285714285714" width="7.714285714285714" height="7.714285714285714" /><rect x="41.14285714285714" y="53.14285714285714" width="7.714285714285714" height="7.714285714285714" /><rect x="56.57142857142857" y="53.14285714285714" width="7.714285714285714" height="7.714285714285714" /><rect x="64.28571428571428" y="53.14285714285714" width="7.714285714285714" height="7.714285714285714" /><rect x="18" y="60.85714285714286" width="7.714285714285714" height="7.714285714285714" /><rect x="33.42857142857143" y="60.85714285714286" width="7.714285714285714" height="7.714285714285714" /><rect x="48.85714285714286" y="60.85714285714286" width="7.714285714285714" height="7.714285714285714" /><rect x="64.28571428571428" y="60.85714285714286" width="7.714285714285714" height="7.714285714285714" /><rect x="18" y="68.57142857142857" width="7.714285714285714" height="7.714285714285714" /><rect x="33.42857142857143" y="68.57142857142857" width="7.714285714285714" height="7.714285714285714" /><rect x="41.14285714285714" y="68.57142857142857" width="7.714285714285714" height="7.714285714285714" /><rect x="64.28571428571428" y="68.57142857142857" width="7.714285714285714" height="7.714285714285714" /><rect x="18" y="76.28571428571428" width="7.714285714285714" height="7.714285714285714" /><rect x="25.714285714285715" y="76.28571428571428" width="7.714285714285714" height="7.714285714285714" /><rect x="33.42857142857143" y="76.28571428571428" width="7.714285714285714" height="7.714285714285714" /><rect x="41.14285714285714" y="76.28571428571428" width="7.714285714285714" height="7.714285714285714" /><rect x="48.85714285714286" y="76.28571428571428" width="7.714285714285714" height="7.714285714285714" /><rect x="56.57142857142857" y="76.28571428571428" width="7.714285714285714" height="7.714285714285714" /><rect x="64.28571428571428" y="76.28571428571428" width="7.714285714285714" height="7.714285714285714" /></g>
    <text class="answer" x="45" y="25">A</text>
    <text class="answer" x="83.5" y="59">B</text>
    <text class="answer" x="45" y="103">C</text>
    <text class="answer" x="6.5" y="59">D</text>
    <rect class="answer-box" x="39.5" y="17" width="11" height="11" />
    <rect class="answer-box" x="73" y="51" width="11" height="11" />
    <rect class="answer-box" x="39.5" y="88" width="11" height="11" />
    <rect class="answer-box" x="6" y="51" width="11" height="11" />
    <text class="card-code" x="45" y="119">C057</text>
  </g>
<g transform="translate(110 10)">
    <rect class="card-border" x="0" y="0" width="90" height="130" />
    <text class="brand" x="45" y="15">智答课堂 AI</text>
    <g class="marker" aria-label="C058"><rect x="18" y="30" width="7.714285714285714" height="7.714285714285714" /><rect x="25.714285714285715" y="30" width="7.714285714285714" height="7.714285714285714" /><rect x="33.42857142857143" y="30" width="7.714285714285714" height="7.714285714285714" /><rect x="41.14285714285714" y="30" width="7.714285714285714" height="7.714285714285714" /><rect x="48.85714285714286" y="30" width="7.714285714285714" height="7.714285714285714" /><rect x="56.57142857142857" y="30" width="7.714285714285714" height="7.714285714285714" /><rect x="64.28571428571428" y="30" width="7.714285714285714" height="7.714285714285714" /><rect x="18" y="37.714285714285715" width="7.714285714285714" height="7.714285714285714" /><rect x="25.714285714285715" y="37.714285714285715" width="7.714285714285714" height="7.714285714285714" /><rect x="64.28571428571428" y="37.714285714285715" width="7.714285714285714" height="7.714285714285714" /><rect x="18" y="45.42857142857143" width="7.714285714285714" height="7.714285714285714" /><rect x="33.42857142857143" y="45.42857142857143" width="7.714285714285714" height="7.714285714285714" /><rect x="41.14285714285714" y="45.42857142857143" width="7.714285714285714" height="7.714285714285714" /><rect x="48.85714285714286" y="45.42857142857143" width="7.714285714285714" height="7.714285714285714" /><rect x="64.28571428571428" y="45.42857142857143" width="7.714285714285714" height="7.714285714285714" /><rect x="18" y="53.14285714285714" width="7.714285714285714" height="7.714285714285714" /><rect x="25.714285714285715" y="53.14285714285714" width="7.714285714285714" height="7.714285714285714" /><rect x="41.14285714285714" y="53.14285714285714" width="7.714285714285714" height="7.714285714285714" /><rect x="64.28571428571428" y="53.14285714285714" width="7.714285714285714" height="7.714285714285714" /><rect x="18" y="60.85714285714286" width="7.714285714285714" height="7.714285714285714" /><rect x="25.714285714285715" y="60.85714285714286" width="7.714285714285714" height="7.714285714285714" /><rect x="33.42857142857143" y="60.85714285714286" width="7.714285714285714" height="7.714285714285714" /><rect x="48.85714285714286" y="60.85714285714286" width="7.714285714285714" height="7.714285714285714" /><rect x="64.28571428571428" y="60.85714285714286" width="7.714285714285714" height="7.714285714285714" /><rect x="18" y="68.57142857142857" width="7.714285714285714" height="7.714285714285714" /><rect x="33.42857142857143" y="68.57142857142857" width="7.714285714285714" height="7.714285714285714" /><rect x="41.14285714285714" y="68.57142857142857" width="7.714285714285714" height="7.714285714285714" /><rect x="64.28571428571428" y="68.57142857142857" width="7.714285714285714" height="7.714285714285714" /><rect x="18" y="76.28571428571428" width="7.714285714285714" height="7.714285714285714" /><rect x="25.714285714285715" y="76.28571428571428" width="7.714285714285714" height="7.714285714285714" /><rect x="33.42857142857143" y="76.28571428571428" width="7.714285714285714" height="7.714285714285714" /><rect x="41.14285714285714" y="76.28571428571428" width="7.714285714285714" height="7.714285714285714" /><rect x="48.85714285714286" y="76.28571428571428" width="7.714285714285714" height="7.714285714285714" /><rect x="56.57142857142857" y="76.28571428571428" width="7.714285714285714" height="7.714285714285714" /><rect x="64.28571428571428" y="76.28571428571428" width="7.714285714285714" height="7.714285714285714" /></g>
    <text class="answer" x="45" y="25">A</text>
    <text class="answer" x="83.5" y="59">B</text>
    <text class="answer" x="45" y="103">C</text>
    <text class="answer" x="6.5" y="59">D</text>
    <rect class="answer-box" x="39.5" y="17" width="11" height="11" />
    <rect class="answer-box" x="73" y="51" width="11" height="11" />
    <rect class="answer-box" x="39.5" y="88" width="11" height="11" />
    <rect class="answer-box" x="6" y="51" width="11" height="11" />
    <text class="card-code" x="45" y="119">C058</text>
  </g>
<g transform="translate(10 148)">
    <rect class="card-border" x="0" y="0" width="90" height="130" />
    <text class="brand" x="45" y="15">智答课堂 AI</text>
    <g class="marker" aria-label="C059"><rect x="18" y="30" width="7.714285714285714" height="7.714285714285714" /><rect x="25.714285714285715" y="30" width="7.714285714285714" height="7.714285714285714" /><rect x="33.42857142857143" y="30" width="7.714285714285714" height="7.714285714285714" /><rect x="41.14285714285714" y="30" width="7.714285714285714" height="7.714285714285714" /><rect x="48.85714285714286" y="30" width="7.714285714285714" height="7.714285714285714" /><rect x="56.57142857142857" y="30" width="7.714285714285714" height="7.714285714285714" /><rect x="64.28571428571428" y="30" width="7.714285714285714" height="7.714285714285714" /><rect x="18" y="37.714285714285715" width="7.714285714285714" height="7.714285714285714" /><rect x="25.714285714285715" y="37.714285714285715" width="7.714285714285714" height="7.714285714285714" /><rect x="64.28571428571428" y="37.714285714285715" width="7.714285714285714" height="7.714285714285714" /><rect x="18" y="45.42857142857143" width="7.714285714285714" height="7.714285714285714" /><rect x="33.42857142857143" y="45.42857142857143" width="7.714285714285714" height="7.714285714285714" /><rect x="41.14285714285714" y="45.42857142857143" width="7.714285714285714" height="7.714285714285714" /><rect x="48.85714285714286" y="45.42857142857143" width="7.714285714285714" height="7.714285714285714" /><rect x="64.28571428571428" y="45.42857142857143" width="7.714285714285714" height="7.714285714285714" /><rect x="18" y="53.14285714285714" width="7.714285714285714" height="7.714285714285714" /><rect x="25.714285714285715" y="53.14285714285714" width="7.714285714285714" height="7.714285714285714" /><rect x="33.42857142857143" y="53.14285714285714" width="7.714285714285714" height="7.714285714285714" /><rect x="41.14285714285714" y="53.14285714285714" width="7.714285714285714" height="7.714285714285714" /><rect x="64.28571428571428" y="53.14285714285714" width="7.714285714285714" height="7.714285714285714" /><rect x="18" y="60.85714285714286" width="7.714285714285714" height="7.714285714285714" /><rect x="33.42857142857143" y="60.85714285714286" width="7.714285714285714" height="7.714285714285714" /><rect x="48.85714285714286" y="60.85714285714286" width="7.714285714285714" height="7.714285714285714" /><rect x="64.28571428571428" y="60.85714285714286" width="7.714285714285714" height="7.714285714285714" /><rect x="18" y="68.57142857142857" width="7.714285714285714" height="7.714285714285714" /><rect x="33.42857142857143" y="68.57142857142857" width="7.714285714285714" height="7.714285714285714" /><rect x="41.14285714285714" y="68.57142857142857" width="7.714285714285714" height="7.714285714285714" /><rect x="64.28571428571428" y="68.57142857142857" width="7.714285714285714" height="7.714285714285714" /><rect x="18" y="76.28571428571428" width="7.714285714285714" height="7.714285714285714" /><rect x="25.714285714285715" y="76.28571428571428" width="7.714285714285714" height="7.714285714285714" /><rect x="33.42857142857143" y="76.28571428571428" width="7.714285714285714" height="7.714285714285714" /><rect x="41.14285714285714" y="76.28571428571428" width="7.714285714285714" height="7.714285714285714" /><rect x="48.85714285714286" y="76.28571428571428" width="7.714285714285714" height="7.714285714285714" /><rect x="56.57142857142857" y="76.28571428571428" width="7.714285714285714" height="7.714285714285714" /><rect x="64.28571428571428" y="76.28571428571428" width="7.714285714285714" height="7.714285714285714" /></g>
    <text class="answer" x="45" y="25">A</text>
    <text class="answer" x="83.5" y="59">B</text>
    <text class="answer" x="45" y="103">C</text>
    <text class="answer" x="6.5" y="59">D</text>
    <rect class="answer-box" x="39.5" y="17" width="11" height="11" />
    <rect class="answer-box" x="73" y="51" width="11" height="11" />
    <rect class="answer-box" x="39.5" y="88" width="11" height="11" />
    <rect class="answer-box" x="6" y="51" width="11" height="11" />
    <text class="card-code" x="45" y="119">C059</text>
  </g>
<g transform="translate(110 148)">
    <rect class="card-border" x="0" y="0" width="90" height="130" />
    <text class="brand" x="45" y="15">智答课堂 AI</text>
    <g class="marker" aria-label="C060"><rect x="18" y="30" width="7.714285714285714" height="7.714285714285714" /><rect x="25.714285714285715" y="30" width="7.714285714285714" height="7.714285714285714" /><rect x="33.42857142857143" y="30" width="7.714285714285714" height="7.714285714285714" /><rect x="41.14285714285714" y="30" width="7.714285714285714" height="7.714285714285714" /><rect x="48.85714285714286" y="30" width="7.714285714285714" height="7.714285714285714" /><rect x="56.57142857142857" y="30" width="7.714285714285714" height="7.714285714285714" /><rect x="64.28571428571428" y="30" width="7.714285714285714" height="7.714285714285714" /><rect x="18" y="37.714285714285715" width="7.714285714285714" height="7.714285714285714" /><rect x="25.714285714285715" y="37.714285714285715" width="7.714285714285714" height="7.714285714285714" /><rect x="64.28571428571428" y="37.714285714285715" width="7.714285714285714" height="7.714285714285714" /><rect x="18" y="45.42857142857143" width="7.714285714285714" height="7.714285714285714" /><rect x="33.42857142857143" y="45.42857142857143" width="7.714285714285714" height="7.714285714285714" /><rect x="41.14285714285714" y="45.42857142857143" width="7.714285714285714" height="7.714285714285714" /><rect x="48.85714285714286" y="45.42857142857143" width="7.714285714285714" height="7.714285714285714" /><rect x="56.57142857142857" y="45.42857142857143" width="7.714285714285714" height="7.714285714285714" /><rect x="64.28571428571428" y="45.42857142857143" width="7.714285714285714" height="7.714285714285714" /><rect x="18" y="53.14285714285714" width="7.714285714285714" height="7.714285714285714" /><rect x="41.14285714285714" y="53.14285714285714" width="7.714285714285714" height="7.714285714285714" /><rect x="48.85714285714286" y="53.14285714285714" width="7.714285714285714" height="7.714285714285714" /><rect x="56.57142857142857" y="53.14285714285714" width="7.714285714285714" height="7.714285714285714" /><rect x="64.28571428571428" y="53.14285714285714" width="7.714285714285714" height="7.714285714285714" /><rect x="18" y="60.85714285714286" width="7.714285714285714" height="7.714285714285714" /><rect x="25.714285714285715" y="60.85714285714286" width="7.714285714285714" height="7.714285714285714" /><rect x="33.42857142857143" y="60.85714285714286" width="7.714285714285714" height="7.714285714285714" /><rect x="48.85714285714286" y="60.85714285714286" width="7.714285714285714" height="7.714285714285714" /><rect x="64.28571428571428" y="60.85714285714286" width="7.714285714285714" height="7.714285714285714" /><rect x="18" y="68.57142857142857" width="7.714285714285714" height="7.714285714285714" /><rect x="33.42857142857143" y="68.57142857142857" width="7.714285714285714" height="7.714285714285714" /><rect x="41.14285714285714" y="68.57142857142857" width="7.714285714285714" height="7.714285714285714" /><rect x="64.28571428571428" y="68.57142857142857" width="7.714285714285714" height="7.714285714285714" /><rect x="18" y="76.28571428571428" width="7.714285714285714" height="7.714285714285714" /><rect x="25.714285714285715" y="76.28571428571428" width="7.714285714285714" height="7.714285714285714" /><rect x="33.42857142857143" y="76.28571428571428" width="7.714285714285714" height="7.714285714285714" /><rect x="41.14285714285714" y="76.28571428571428" width="7.714285714285714" height="7.714285714285714" /><rect x="48.85714285714286" y="76.28571428571428" width="7.714285714285714" height="7.714285714285714" /><rect x="56.57142857142857" y="76.28571428571428" width="7.714285714285714" height="7.714285714285714" /><rect x="64.28571428571428" y="76.28571428571428" width="7.714285714285714" height="7.714285714285714" /></g>
    <text class="answer" x="45" y="25">A</text>
    <text class="answer" x="83.5" y="59">B</text>
    <text class="answer" x="45" y="103">C</text>
    <text class="answer" x="6.5" y="59">D</text>
    <rect class="answer-box" x="39.5" y="17" width="11" height="11" />
    <rect class="answer-box" x="73" y="51" width="11" height="11" />
    <rect class="answer-box" x="39.5" y="88" width="11" height="11" />
    <rect class="answer-box" x="6" y="51" width="11" height="11" />
    <text class="card-code" x="45" y="119">C060</text>
  </g>
</svg>
